<?xml version="1.0" standalone="no"?>
<!DOCTYPE svg PUBLIC "-//W3C//DTD SVG 20010904//EN"
 "http://www.w3.org/TR/2001/REC-SVG-20010904/DTD/svg10.dtd">
<svg version="1.0" xmlns="http://www.w3.org/2000/svg"
 width="100.000000pt" height="100.000000pt" viewBox="0 0 100.000000 100.000000"
 preserveAspectRatio="xMidYMid meet">

<g transform="translate(0.000000,100.000000) scale(0.100000,-0.100000)"
fill="#000000" stroke="none">
<path d="M347 702 c-9 -10 -17 -22 -17 -27 0 -4 29 -59 65 -121 l65 -113 0
-91 c0 -87 1 -91 25 -100 16 -6 34 -6 50 0 24 9 25 13 25 99 l0 89 66 116 c69
123 74 151 29 162 -45 11 -59 0 -100 -78 -22 -43 -42 -78 -45 -78 -3 0 -23 35
-45 78 -35 68 -44 77 -71 80 -20 2 -36 -3 -47 -16z m109 -82 c26 -49 51 -90
56 -90 4 0 28 41 53 90 25 50 50 90 56 90 19 0 49 -20 49 -33 0 -7 -26 -57
-57 -112 -58 -100 -58 -100 -63 -200 l-5 -100 -35 0 -35 0 -5 100 c-5 100 -5
100 -63 200 -31 55 -57 105 -57 112 0 13 28 32 47 33 6 0 33 -40 59 -90z"/>
<path d="M370 673 c0 -10 4 -14 8 -8 4 6 11 13 16 18 5 4 2 7 -7 7 -10 0 -17
-8 -17 -17z"/>
<path d="M610 668 c-9 -20 -9 -21 2 -7 7 9 20 18 28 22 12 4 12 6 -2 6 -10 1
-22 -9 -28 -21z"/>
<path d="M391 630 c14 -31 19 -36 19 -24 0 6 -7 19 -16 30 -14 18 -14 18 -3
-6z"/>
<path d="M545 549 c-4 -6 -5 -12 -2 -15 2 -3 7 2 10 11 7 17 1 20 -8 4z"/>
<path d="M450 527 c0 -4 8 -20 18 -34 9 -15 20 -56 23 -93 l6 -65 1 60 c2 48
-3 68 -23 100 -13 22 -25 36 -25 32z"/>
<path d="M491 294 c0 -11 3 -14 6 -6 3 7 2 16 -1 19 -3 4 -6 -2 -5 -13z"/>
<path d="M704 502 c-11 -11 -35 -29 -54 -39 -67 -38 -48 -84 34 -81 l51 1 -55
6 c-47 5 -55 9 -58 28 -2 17 6 26 35 39 21 10 44 26 51 36 16 21 35 23 51 4 6
-7 22 -11 36 -8 18 3 27 -1 32 -14 4 -11 13 -24 21 -30 25 -19 10 -48 -28 -55
-35 -6 -35 -6 -4 -8 32 -1 54 14 54 37 0 25 -50 80 -78 85 -15 3 -37 8 -48 12
-15 5 -27 1 -40 -13z"/>
<path d="M192 395 c-11 -14 -25 -25 -32 -25 -21 0 -90 -61 -90 -79 0 -38 32
-51 121 -49 l84 2 -89 5 c-67 5 -91 10 -99 22 -13 20 -3 47 20 56 10 4 23 13
29 21 7 9 20 13 33 9 16 -4 21 -1 21 13 0 42 65 53 85 14 8 -16 14 -19 26 -11
20 13 47 3 56 -20 4 -10 15 -24 25 -31 41 -30 15 -71 -46 -74 l-41 -1 38 -4
c41 -5 77 16 77 44 0 8 -17 35 -37 60 -28 34 -42 44 -60 40 -14 -2 -29 3 -39
14 -24 26 -59 24 -82 -6z"/>
</g>
</svg>
